<mxfile host="app.diagrams.net" modified="2023-01-31T02:52:54.922Z" agent="5.0 (Macintosh; Intel Mac OS X 10_15_7) AppleWebKit/537.36 (KHTML, like Gecko) Chrome/109.0.0.0 Safari/537.36" etag="CA9O4An2Rp9aKfsoODl6" version="20.4.2" type="github">
  <diagram id="THGEiyhQjzUQyqXeMc_L" name="第 1 页">
    <mxGraphModel dx="2514" dy="1382" grid="1" gridSize="10" guides="1" tooltips="1" connect="1" arrows="1" fold="1" page="1" pageScale="1" pageWidth="827" pageHeight="1169" math="0" shadow="0">
      <root>
        <mxCell id="0" />
        <mxCell id="1" parent="0" />
        <mxCell id="AH_rwAVmJGZhnFBOnPL0-3" value="渠道方发起" style="rounded=0;whiteSpace=wrap;html=1;" vertex="1" parent="1">
          <mxGeometry x="30" y="220" width="100" height="40" as="geometry" />
        </mxCell>
        <mxCell id="AH_rwAVmJGZhnFBOnPL0-4" value="业务方审核" style="rounded=0;whiteSpace=wrap;html=1;" vertex="1" parent="1">
          <mxGeometry x="180" y="220" width="100" height="40" as="geometry" />
        </mxCell>
        <mxCell id="AH_rwAVmJGZhnFBOnPL0-5" value="开发审核" style="rounded=0;whiteSpace=wrap;html=1;" vertex="1" parent="1">
          <mxGeometry x="330" y="220" width="100" height="40" as="geometry" />
        </mxCell>
        <mxCell id="AH_rwAVmJGZhnFBOnPL0-6" value="运维操作" style="rounded=0;whiteSpace=wrap;html=1;" vertex="1" parent="1">
          <mxGeometry x="480" y="220" width="100" height="40" as="geometry" />
        </mxCell>
        <mxCell id="AH_rwAVmJGZhnFBOnPL0-7" value="测试环境联调" style="rounded=0;whiteSpace=wrap;html=1;" vertex="1" parent="1">
          <mxGeometry x="480" y="310" width="100" height="40" as="geometry" />
        </mxCell>
        <mxCell id="AH_rwAVmJGZhnFBOnPL0-8" value="" style="rounded=0;whiteSpace=wrap;html=1;" vertex="1" parent="1">
          <mxGeometry x="330" y="310" width="100" height="40" as="geometry" />
        </mxCell>
        <mxCell id="AH_rwAVmJGZhnFBOnPL0-9" value="测试审核" style="rounded=0;whiteSpace=wrap;html=1;" vertex="1" parent="1">
          <mxGeometry x="180" y="310" width="100" height="40" as="geometry" />
        </mxCell>
      </root>
    </mxGraphModel>
  </diagram>
</mxfile>
